<svg width="20" height="20" viewBox="0 0 20 20" fill="none" xmlns="http://www.w3.org/2000/svg">
<path d="M17.5 2H15.5V0H13.5V2H6.5V0H4.5V2H2.5C1.39562 2 0.5 2.89563 0.5 4V18C0.5 19.1044 1.39562 20 2.5 20H17.5C18.6044 20 19.5 19.1044 19.5 18V4C19.5 2.89563 18.6044 2 17.5 2ZM17.5 18H2.5V8H17.5V18ZM17.5 6H2.5V4H4.5V5H6.5V4H13.5V5H15.5V4H17.5V6Z" fill="#3F5C69"/>
<path d="M10.5 9H12.5V11H10.5V9Z" fill="#3F5C69"/>
<path d="M10.5 12H12.5V14H10.5V12Z" fill="#3F5C69"/>
<path d="M10.5 15H12.5V17H10.5V15Z" fill="#3F5C69"/>
<path d="M7.5 9H9.5V11H7.5V9Z" fill="#3F5C69"/>
<path d="M7.5 12H9.5V14H7.5V12Z" fill="#3F5C69"/>
<path d="M7.5 15H9.5V17H7.5V15Z" fill="#3F5C69"/>
<path d="M4.5 12H6.5V14H4.5V12Z" fill="#3F5C69"/>
<path d="M4.5 15H6.5V17H4.5V15Z" fill="#3F5C69"/>
<path d="M13.5 9H15.5V11H13.5V9Z" fill="#3F5C69"/>
<path d="M13.5 12H15.5V14H13.5V12Z" fill="#3F5C69"/>
</svg>
